<?xml version="1.0" standalone="no"?>
<!DOCTYPE svg PUBLIC "-//W3C//DTD SVG 20010904//EN"
 "http://www.w3.org/TR/2001/REC-SVG-20010904/DTD/svg10.dtd">
<svg version="1.0" xmlns="http://www.w3.org/2000/svg"
 width="133.000000pt" height="300.000000pt" viewBox="0 0 133.000000 300.000000"
 preserveAspectRatio="xMidYMid meet">
<metadata>
Created by potrace 1.10, written by Peter Selinger 2001-2011
</metadata>
<g transform="translate(0.000000,300.000000) scale(0.100000,-0.100000)"
fill="#000000" stroke="none">
<path d="M397 2859 c-9 -5 -22 -7 -27 -4 -6 3 -13 -1 -16 -9 -3 -9 -10 -13
-15 -10 -5 3 -12 -2 -15 -10 -3 -9 -13 -16 -20 -16 -12 0 -12 -4 -4 -21 8 -14
8 -24 1 -33 -20 -24 13 -39 70 -34 48 5 55 3 91 -30 22 -20 49 -54 60 -76 11
-23 37 -61 58 -86 96 -116 112 -161 130 -360 16 -172 8 -643 -13 -720 l-14
-55 -16 35 c-8 19 -22 62 -31 95 -9 33 -34 112 -56 175 -32 94 -37 117 -27
131 6 9 25 33 40 52 30 38 29 57 -3 57 -10 0 -21 9 -25 19 -7 23 -42 25 -66 4
-9 -8 -22 -13 -29 -11 -15 4 -34 -46 -26 -68 3 -8 21 -21 40 -29 29 -12 37
-23 46 -57 7 -24 29 -95 51 -159 21 -63 39 -121 39 -127 0 -7 13 -40 30 -74
l29 -63 -49 -195 c-27 -107 -50 -206 -50 -219 0 -53 -12 -7 -30 120 -19 137
-28 170 -74 272 -20 45 -24 62 -16 77 6 11 14 20 19 20 14 0 44 67 38 84 -4 9
-17 16 -30 16 -16 0 -28 9 -35 25 -12 26 -45 34 -57 14 -4 -6 -14 -8 -22 -5
-12 5 -14 1 -11 -18 3 -15 0 -27 -8 -30 -15 -6 -19 -63 -5 -84 4 -7 25 -19 45
-26 35 -12 40 -19 77 -112 41 -101 80 -286 78 -367 l-1 -42 -9 43 c-18 92
-114 247 -177 287 -28 18 -31 25 -32 66 0 50 -26 86 -55 76 -18 -7 -20 -53 -4
-63 9 -5 10 1 5 20 -9 35 20 36 36 1 12 -27 -2 -55 -28 -55 -7 0 -11 -6 -8
-13 5 -15 -23 -44 -33 -33 -3 3 -1 17 5 31 10 21 9 25 -3 25 -18 0 -19 12 -3
28 8 8 8 12 1 12 -6 0 -17 -7 -24 -16 -11 -14 -11 -18 3 -28 12 -9 14 -16 6
-30 -23 -41 20 -60 72 -32 21 12 28 11 58 -9 19 -13 54 -54 79 -91 114 -169
123 -260 43 -458 -32 -83 -125 -431 -136 -515 -4 -30 -2 -51 4 -55 7 -4 13 12
17 41 13 94 105 450 134 519 16 39 39 105 51 148 21 79 52 150 70 161 13 8
104 144 130 194 21 43 22 43 130 62 74 12 112 30 134 61 22 31 21 62 -1 53
-24 -9 -157 -34 -161 -30 -5 4 76 164 100 198 19 27 21 27 44 12 43 -28 112
-14 86 18 -19 24 -24 57 -8 57 8 0 22 7 31 16 14 15 13 19 -19 50 -41 40 -50
41 -69 13 -9 -13 -17 -16 -22 -10 -25 41 -62 -26 -46 -84 9 -33 7 -41 -13 -69
-13 -17 -45 -74 -71 -126 -26 -52 -64 -117 -84 -145 -21 -27 -60 -87 -87 -133
-51 -87 -111 -164 -99 -127 21 62 126 501 135 563 12 88 21 106 76 155 36 32
44 46 54 95 6 31 18 76 27 100 8 24 13 46 10 48 -3 3 -18 -1 -35 -10 -36 -18
-64 -75 -86 -175 -30 -130 -35 -117 -36 77 0 200 -1 196 67 298 29 43 40 53
72 58 38 6 91 39 91 57 0 12 -42 12 -74 -1 -14 -5 -26 -7 -26 -5 0 3 14 27 30
54 26 42 35 49 71 54 22 3 49 13 60 23 19 17 26 54 11 54 -5 0 -17 15 -27 33
-18 33 -19 34 -87 34 l-70 0 6 -29 c3 -16 17 -45 30 -65 l25 -36 -41 -76 c-23
-42 -61 -106 -85 -142 -23 -37 -43 -72 -43 -78 0 -6 -4 -11 -10 -11 -6 0 -10
28 -10 65 0 73 -19 219 -54 410 l-24 130 25 47 c34 65 29 91 -20 99 -21 3 -44
15 -52 25 -12 16 -17 17 -34 7 -12 -7 -28 -13 -36 -13 -17 0 -20 -31 -4 -47 8
-8 7 -17 -3 -32 -12 -20 -10 -25 15 -47 15 -13 40 -27 55 -30 33 -9 42 -20 42
-59 0 -16 9 -66 19 -110 10 -44 14 -71 7 -61 -6 11 -32 47 -57 82 -26 34 -59
85 -75 114 -16 29 -45 66 -65 84 -29 24 -35 35 -28 51 12 31 10 80 -3 93 -14
14 -18 14 -41 1z m37 -25 c8 -20 -13 -47 -31 -40 -8 3 -13 -2 -13 -14 0 -11
-4 -20 -10 -20 -5 0 -10 -7 -10 -15 0 -9 -9 -15 -23 -15 -30 0 -40 10 -26 27
9 10 8 17 -1 28 -10 12 -9 15 4 15 11 0 14 5 10 12 -5 8 -2 9 9 5 12 -4 17 -1
17 11 1 16 2 16 14 -1 13 -17 14 -16 19 3 6 24 32 27 41 4z m180 -52 c10 -37
26 -43 26 -10 0 16 3 19 11 11 6 -6 18 -9 25 -6 17 6 17 2 4 -32 -9 -22 -15
-26 -35 -21 -16 4 -25 2 -25 -5 0 -7 -9 -9 -25 -5 -14 4 -25 2 -25 -4 0 -5 5
-10 12 -10 6 0 8 -3 5 -6 -9 -10 -59 25 -52 36 4 6 16 10 27 10 l22 0 -22 20
c-27 25 -27 29 -4 46 26 21 45 12 56 -24z m360 -316 c16 6 17 3 11 -27 -7 -32
-6 -33 9 -14 14 18 15 18 16 3 0 -10 7 -18 15 -18 22 0 18 -17 -7 -34 -29 -21
-35 -20 -41 4 -7 28 -50 43 -58 21 -5 -12 -11 -6 -24 23 -18 43 -13 56 15 39
15 -10 19 -9 25 5 4 12 8 13 14 4 4 -7 15 -10 25 -6z m-24 -234 c0 -12 -46
-32 -72 -32 -30 0 -12 16 32 28 19 6 36 11 38 11 1 1 2 -3 2 -7z m-390 -298
c0 -23 2 -25 15 -14 19 16 32 5 16 -14 -20 -24 -51 -27 -51 -5 0 26 -16 24
-23 -2 -4 -15 -11 -20 -21 -16 -9 4 -16 1 -16 -5 0 -7 -5 -7 -14 2 -12 9 -13
17 -4 36 7 15 17 23 25 20 8 -3 16 1 19 9 4 8 17 15 30 15 19 0 24 -5 24 -26z
m305 -55 c-8 -23 -15 -56 -15 -73 0 -34 -30 -98 -48 -104 -8 -2 -7 8 3 32 8
19 15 46 14 58 0 17 -4 13 -15 -16 -16 -45 -30 -64 -19 -26 29 96 68 170 90
170 2 0 -2 -19 -10 -41z m195 -224 c7 -8 19 -15 26 -15 8 0 14 -4 14 -9 0 -15
-25 -31 -60 -38 -29 -5 -32 -4 -27 11 4 10 10 29 13 42 7 28 16 30 34 9z m-64
-20 c9 -36 2 -48 -20 -32 -13 9 -16 20 -12 35 10 29 24 28 32 -3z m-555 -75
c9 -25 15 -29 35 -24 19 5 24 2 24 -14 0 -11 -7 -28 -16 -37 -15 -14 -18 -14
-33 -1 -15 14 -18 13 -29 -5 -8 -12 -19 -18 -28 -15 -9 3 -14 -1 -14 -11 0
-29 -21 1 -26 37 -5 29 -3 32 15 27 23 -6 24 -3 12 28 -6 15 -3 23 13 31 32
18 36 16 47 -16z m605 2 c6 -4 14 -17 18 -29 6 -19 4 -23 -16 -23 -31 0 -43
10 -44 38 -1 22 19 30 42 14z m-59 -278 c-28 -24 -69 -38 -142 -49 -34 -5 -37
-4 -22 7 10 7 26 19 35 26 15 11 15 11 -2 5 -12 -4 -17 -3 -13 4 4 6 32 14 63
18 32 4 67 10 78 15 32 12 34 1 3 -26z"/>
</g>
</svg>
